<svg width="34" height="37" viewBox="0 0 34 37" fill="none" xmlns="http://www.w3.org/2000/svg">
<path d="M16.9991 0.530152C8.66233 0.528984 1.55558 7.1212 0.22079 16.0937C-1.11399 25.0663 3.71732 33.7697 11.6271 36.6417C12.479 36.8089 12.7839 36.2386 12.7839 35.7482C12.7839 35.3079 12.7703 34.1413 12.7652 32.5901C8.03715 33.7047 7.03872 30.1045 7.03872 30.1045C6.72747 28.9843 6.05832 28.0227 5.15261 27.3942C3.61919 26.2443 5.27018 26.2703 5.27018 26.2703C6.36176 26.4335 7.32249 27.1387 7.87188 28.18C8.33691 29.1019 9.12036 29.7831 10.0482 30.0723C10.976 30.3614 11.9713 30.2346 12.8129 29.72C12.892 28.78 13.2756 27.9015 13.8948 27.2418C10.1226 26.7756 6.15615 25.1854 6.15615 18.0834C6.13522 16.2466 6.76083 14.4708 7.90425 13.1216C7.3869 11.5227 7.44782 9.7689 8.07463 8.21727C8.07463 8.21727 9.50072 7.71755 12.7465 10.114C15.5302 9.28173 18.4681 9.28173 21.2518 10.114C24.4993 7.71569 25.9237 8.21727 25.9237 8.21727C26.5534 9.76817 26.6143 11.5232 26.094 13.1216C27.2416 14.4707 27.8667 16.2511 27.8387 18.0909C27.8387 25.2114 23.8689 26.7756 20.083 27.2344C20.8997 28.1448 21.3185 29.3937 21.2331 30.6637C21.2331 33.1419 21.2126 35.1407 21.2126 35.7482C21.2126 36.2442 21.5159 36.8201 22.3832 36.638C30.2896 33.7611 35.1157 25.0572 33.7782 16.087C32.4407 7.11687 25.3342 0.528072 16.9991 0.530152Z" fill="#0A0A14"/>
</svg>
